<?xml version="1.0" encoding="UTF-8"?>
<svg version="1.1" xmlns="http://www.w3.org/2000/svg" width="500" height="500">
<path d="M0 0 C-0.00222061 0.79421954 -0.00444122 1.58843908 -0.00672913 2.40672588 C-0.05800471 21.72775911 -0.06522353 41.04834835 -0.02334595 60.36941051 C-0.0041577 69.71297918 0.00009344 79.05610973 -0.03076172 88.3996582 C-0.057616 96.5431182 -0.05650315 104.68601074 -0.02174091 112.82944947 C-0.00431029 117.14198177 -0.00092938 121.45349747 -0.03103638 125.76598167 C-0.05893462 129.82536851 -0.04943479 133.88295115 -0.01126289 137.94223785 C-0.00384511 139.43174925 -0.01008536 140.92140101 -0.03101921 142.41078377 C-0.4543762 150.22724629 -0.4543762 150.22724629 2.73257446 156.94677162 C4.78739085 158.25108973 6.73132952 159.13581634 9 160 C10.08023438 160.680625 11.16046875 161.36125 12.2734375 162.0625 C17.28398862 165.19251682 22.31433541 168.29223397 27.5 171.125 C28.2528125 171.54007813 29.005625 171.95515625 29.78125 172.3828125 C33.68955984 173.4699832 36.30583972 171.39116185 39.67578125 169.4921875 C40.54589844 168.95851563 41.41601562 168.42484375 42.3125 167.875 C43.19550781 167.33617187 44.07851562 166.79734375 44.98828125 166.2421875 C45.65214844 165.83226562 46.31601563 165.42234375 47 165 C45.35 163.68 43.7 162.36 42 161 C41.13375 161.53625 40.2675 162.0725 39.375 162.625 C35.12804775 164.35523981 34.15994245 163.73870648 30 162 C27.41582765 160.61926178 24.92614027 159.10760364 22.4375 157.5625 C21.79103516 157.16740234 21.14457031 156.77230469 20.47851562 156.36523438 C19.22498163 155.59883159 17.97280014 154.83021099 16.72216797 154.05908203 C14.49232642 152.68779586 12.24772136 151.34173002 10 150 C12.72199901 147.08795768 15.33440114 145.03356398 18.80859375 143.08984375 C19.72060547 142.57486328 20.63261719 142.05988281 21.57226562 141.52929688 C22.99055664 140.74135742 22.99055664 140.74135742 24.4375 139.9375 C26.31139968 138.88447355 28.18510389 137.83109916 30.05859375 136.77734375 C30.88673584 136.31577881 31.71487793 135.85421387 32.56811523 135.37866211 C34.29645036 134.39885 35.99914389 133.37319318 37.68212891 132.31738281 C40 131 40 131 42.02734375 131.14453125 C44.34938463 132.15151532 46.41771532 133.34126777 48.5625 134.6875 C52.04005274 136.82363865 55.533782 138.87335061 59.125 140.8125 C65.72878911 144.38336911 72.28038339 148.0416349 78.80615234 151.75292969 C80.32334237 152.61536088 81.84199534 153.47522168 83.36181641 154.33300781 C85.72603024 155.67069928 88.08250205 157.02116301 90.4375 158.375 C91.54762451 159.00003418 91.54762451 159.00003418 92.68017578 159.63769531 C97.88562726 162.65688178 97.88562726 162.65688178 99 166 C98.48953125 166.2902002 97.9790625 166.58040039 97.453125 166.87939453 C87.94318642 172.28985826 78.44546061 177.71951666 69.00268555 183.24658203 C66.99724673 184.41765786 64.98826404 185.58268542 62.97583008 186.74169922 C57.96515116 189.63423671 53.04011617 192.5959604 48.19921875 195.765625 C47.27044922 196.35214844 46.34167969 196.93867188 45.38476562 197.54296875 C43.6368312 198.64919228 41.9106127 199.79081657 40.21289062 200.97265625 C37.72805499 202.51272609 35.88407412 203.49640868 33 204 C28.86522848 202.70137379 25.56974348 200.41301929 22 198 C20.26742562 197.01543981 18.52524576 196.04757235 16.7734375 195.09765625 C14.03365597 193.56969313 11.30846986 192.02350159 8.60205746 190.43706608 C3.30096052 187.34217378 -1.97010266 184.51337914 -7.59141541 182.04185486 C-23.93624573 174.39883546 -23.93624573 174.39883546 -27.38347244 167.05116653 C-29.34197774 159.20418224 -28.96376195 151.25653546 -28.53484845 143.23795438 C-28.37677863 139.77594797 -28.36375159 136.31318638 -28.33421326 132.84812927 C-28.2569863 126.30927782 -28.05264299 119.78107968 -27.80047601 113.24689001 C-27.51941557 105.79959175 -27.38320556 98.35173756 -27.25809014 90.9004432 C-26.99788745 75.59415728 -26.55925779 60.29845971 -26 45 C-27.93873142 45.95583968 -29.8759433 46.91476192 -31.8125 47.875 C-32.89144531 48.40867188 -33.97039062 48.94234375 -35.08203125 49.4921875 C-38.07838265 50.97221139 -38.07838265 50.97221139 -41 53 C-41.46318418 55.31762871 -41.46318418 55.31762871 -41.39872742 58.06192017 C-41.41753464 59.66894051 -41.41753464 59.66894051 -41.4367218 61.3084259 C-41.43456917 63.07895576 -41.43456917 63.07895576 -41.43237305 64.88525391 C-41.4425647 66.12424942 -41.45275635 67.36324493 -41.46325684 68.63978577 C-41.48832443 72.04257701 -41.50012209 75.44493617 -41.50611091 78.84778261 C-41.51547366 82.40195663 -41.54167522 85.95600477 -41.56611633 89.51010132 C-41.60984308 96.24258522 -41.63835198 102.97504479 -41.66143972 109.70762765 C-41.68845842 117.37144557 -41.73237187 125.03513726 -41.77772844 132.69886518 C-41.87066307 148.4658453 -41.94230327 164.23284919 -42 180 C-41.22873276 180.30117233 -40.45746552 180.60234467 -39.66282654 180.91264343 C-36.81283892 182.07642662 -34.26049388 183.47556421 -31.59765625 185.01953125 C-30.5523877 185.62369873 -29.50711914 186.22786621 -28.43017578 186.8503418 C-27.31884277 187.497854 -26.20750977 188.14536621 -25.0625 188.8125 C-23.90615506 189.48424762 -22.74974149 190.15587711 -21.59326172 190.82739258 C-19.22596947 192.20316588 -16.86026311 193.58161777 -14.49560547 194.96191406 C-11.18012295 196.89675812 -7.85765656 198.81941812 -4.53515625 200.7421875 C-2.56472574 201.88997559 -0.59465507 203.03838173 1.375 204.1875 C2.28886475 204.71512939 3.20272949 205.24275879 4.14428711 205.78637695 C4.99128174 206.28355225 5.83827637 206.78072754 6.7109375 207.29296875 C7.44618652 207.7211792 8.18143555 208.14938965 8.93896484 208.59057617 C11.24727302 210.16909585 13.08180531 211.97229462 15 214 C6.33419659 219.40555202 -2.42269273 224.59383354 -11.3125 229.625 C-18.57903836 233.7385002 -25.82782747 237.86774414 -32.9765625 242.18359375 C-34.06670654 242.8369873 -35.15685059 243.49038086 -36.2800293 244.16357422 C-38.34343541 245.40452162 -40.39995973 246.65700403 -42.44848633 247.92236328 C-43.37169678 248.47520996 -44.29490723 249.02805664 -45.24609375 249.59765625 C-46.44770142 250.33254272 -46.44770142 250.33254272 -47.67358398 251.08227539 C-50.64842922 252.25579236 -51.97784475 251.99441075 -55 251 C-56.93527142 250.04545333 -58.8329214 249.01290909 -60.69921875 247.9296875 C-61.81458008 247.28708984 -62.92994141 246.64449219 -64.07910156 245.98242188 C-65.28197743 245.28007872 -66.48477516 244.57760175 -67.6875 243.875 C-68.92507628 243.15884909 -70.16303733 242.4433627 -71.40136719 241.72851562 C-73.97010106 240.24425905 -76.53649445 238.75607085 -79.10107422 237.26464844 C-82.93816169 235.03399855 -86.78248866 232.81607632 -90.62890625 230.6015625 C-96.75587348 227.07335632 -102.87921144 223.53891747 -109 220 C-109 219.01 -109 218.02 -109 217 C-105.44545892 214.9339422 -101.88907638 212.87109339 -98.33105469 210.81103516 C-97.12418043 210.11169175 -95.91778814 209.41151583 -94.71191406 208.71044922 C-91.83682064 207.03927136 -88.95640751 205.38464658 -86.05541992 203.75830078 C-83.08469951 202.10879536 -83.08469951 202.10879536 -80.7512207 200.42529297 C-78.72952849 199.09670094 -77.4005891 198.32598405 -75 198 C-70.99685514 199.25576729 -67.69241498 201.35379547 -64.1875 203.625 C-63.24712891 204.19863281 -62.30675781 204.77226562 -61.33789062 205.36328125 C-57.84328939 207.50650345 -54.41083938 209.72610708 -51 212 C-51 212.66 -51 213.32 -51 214 C-52.96147874 215.38938077 -54.96166576 216.7260411 -57 218 C-54.7451761 220.1680999 -53.54430035 220.98704047 -50.375 221.0625 C-45.43948311 219.50872616 -41.32680125 216.79617393 -37 214 C-40.54795486 211.02855195 -44.15977465 208.62298592 -48.17578125 206.328125 C-48.74580368 206.00084412 -49.31582611 205.67356323 -49.90312195 205.33636475 C-51.70399743 204.3035849 -53.50815937 203.27671153 -55.3125 202.25 C-56.54254075 201.54596245 -57.7723607 200.84153899 -59.00195312 200.13671875 C-61.99876363 198.42001227 -64.99854842 196.70858211 -68 195 C-68.56199913 174.77306813 -68.98449121 154.54773006 -69.24349213 134.31459618 C-69.36698348 124.91833121 -69.53511568 115.52692981 -69.81054688 106.13378906 C-70.05066605 97.94096366 -70.20479014 89.75165903 -70.25812387 81.55541289 C-70.28929051 77.21783058 -70.36176546 72.89031286 -70.53752136 68.55598068 C-71.56124376 42.30024913 -71.56124376 42.30024913 -65.70202637 35.22516632 C-60.06572456 30.58721043 -53.86794738 27.77362861 -47.07426453 25.23118973 C-42.19612766 23.27758035 -37.80365533 20.57857657 -33.3125 17.875 C-31.61704262 16.90454493 -29.9194184 15.9378563 -28.21875 14.9765625 C-24.50168356 12.86123957 -20.79532336 10.72825332 -17.09375 8.5859375 C-16.12655029 8.02793457 -15.15935059 7.46993164 -14.1628418 6.89501953 C-12.29777646 5.81863322 -10.43457673 4.73900624 -8.57348633 3.65576172 C-7.32474731 2.93670654 -7.32474731 2.93670654 -6.05078125 2.203125 C-5.31512939 1.77676758 -4.57947754 1.35041016 -3.8215332 0.91113281 C-2 0 -2 0 0 0 Z " fill="#2AAFE1" transform="translate(183,158)"/>
<path d="M0 0 C2.51157472 2.51157472 2.23691344 4.03394162 2.25224304 7.46029663 C2.24505753 8.20300812 2.23787201 8.9457196 2.23046875 9.7109375 C2.23001053 10.47548248 2.22955231 11.24002747 2.2290802 12.02774048 C2.22605682 13.64676462 2.21816795 15.26578582 2.20581055 16.88476562 C2.18762369 19.35817834 2.18530042 21.83121508 2.18554688 24.3046875 C2.18062881 25.87760739 2.17479923 27.45052475 2.16796875 29.0234375 C2.16685593 29.76210052 2.1657431 30.50076355 2.16459656 31.2618103 C2.0963839 38.68164641 2.0963839 38.68164641 1 41 C-1.19311523 42.64746094 -1.19311523 42.64746094 -4.05859375 44.234375 C-5.08404297 44.80800781 -6.10949219 45.38164063 -7.16601562 45.97265625 C-8.78540039 46.85244141 -8.78540039 46.85244141 -10.4375 47.75 C-11.51322266 48.35199219 -12.58894531 48.95398438 -13.69726562 49.57421875 C-21.69076849 54 -21.69076849 54 -24 54 C-24.495 49.545 -24.495 49.545 -25 45 C-28.12189236 46.46824416 -28.12189236 46.46824416 -31 49 C-31.49333796 51.86073964 -31.62891846 53.81033985 -31.4375 56.625 C-31.40946289 57.6459375 -31.40946289 57.6459375 -31.38085938 58.6875 C-31.2508056 62.47217803 -31.2508056 62.47217803 -30 66 C-27.91639368 64.7980922 -25.83324889 63.59539716 -23.75073242 62.39160156 C-21.99682578 61.37855943 -20.24177356 60.36749814 -18.4855957 59.35839844 C-13.24764502 56.3395702 -8.10053054 53.23938671 -3.10546875 49.828125 C-0.00256647 48.60768848 1.80399948 49.10026913 5 50 C7.51033138 51.30143908 9.85691491 52.63650749 12.25 54.125 C13.76603157 55.04184698 15.28302258 55.95710868 16.80078125 56.87109375 C17.62916504 57.37237793 18.45754883 57.87366211 19.31103516 58.39013672 C24.31598263 61.3865616 29.38025828 64.28052812 34.4375 67.1875 C36.68626842 68.48295053 38.93496541 69.77852508 41.18359375 71.07421875 C42.31265137 71.72438965 43.44170898 72.37456055 44.60498047 73.04443359 C50.0716998 76.19332054 55.53574887 79.34683264 61 82.5 C63.16665311 83.7500235 65.33331979 85.00002347 67.5 86.25 C71.83333333 88.75 76.16666667 91.25 80.5 93.75 C81.57378906 94.3694751 82.64757812 94.9889502 83.75390625 95.62719727 C85.9076172 96.86976019 88.06126367 98.11243489 90.21484375 99.35522461 C95.23684262 102.25314623 100.25942807 105.15003349 105.28442383 108.04275513 C107.05045522 109.05947198 108.81627431 110.07655658 110.58203125 111.09375 C112.78734155 112.36400873 114.99304216 113.63359018 117.19921875 114.90234375 C118.20597656 115.48242188 119.21273437 116.0625 120.25 116.66015625 C121.12140625 117.16168213 121.9928125 117.66320801 122.890625 118.17993164 C123.91671875 118.7805542 124.9428125 119.38117676 126 120 C126.84138519 120.30466187 127.68277039 120.60932373 128.5496521 120.92321777 C131.7230763 122.28843601 133.66912577 123.42944102 136 126 C137.44186683 131.87585729 137.16556006 137.63526102 136.9765625 143.6484375 C136.95789835 145.38859996 136.9436698 147.12881517 136.9336853 148.86904907 C136.89560075 153.43746427 136.79746964 158.00267189 136.68664551 162.56982422 C136.5841273 167.2349101 136.53863024 171.9005173 136.48828125 176.56640625 C136.38120842 185.71234273 136.21066704 194.85590412 136 204 C133.04221486 202.83139604 130.19922484 201.65369481 127.41796875 200.109375 C126.41056641 199.55117065 126.41056641 199.55117065 125.3828125 198.98168945 C124.65835938 198.57523193 123.93390625 198.16877441 123.1875 197.75 C122.01767578 197.09680786 122.01767578 197.09680786 120.82421875 196.43041992 C112.26646158 191.62754585 103.80382282 186.66206012 95.3359375 181.703125 C88.94718008 177.96365411 82.53883924 174.25874966 76.125 170.5625 C75.04541016 169.94028564 73.96582031 169.31807129 72.85351562 168.67700195 C70.6631748 167.41488483 68.47274498 166.15292215 66.28222656 164.89111328 C61.93428051 162.38596674 57.58780094 159.87828286 53.24145508 157.37036133 C51.09034782 156.12914474 48.93914427 154.888095 46.7878418 153.6472168 C41.7541364 150.74372822 36.7209768 147.8393059 31.68978882 144.93145752 C29.91637392 143.90654597 28.14278354 142.88193877 26.36914062 141.85742188 C24.15004227 140.57547262 21.93126984 139.29295893 19.71289062 138.00976562 C17.72493897 136.8616506 15.73341956 135.71968311 13.73779297 134.58496094 C11.96053756 133.55607364 10.2024228 132.49310838 8.46923828 131.39160156 C7.69692871 130.91432617 6.92461914 130.43705078 6.12890625 129.9453125 C5.14192749 129.30746826 5.14192749 129.30746826 4.13500977 128.65673828 C0.07831561 127.40888153 -3.2569015 129.61217408 -6.83666992 131.48046875 C-8.26910034 132.32544922 -8.26910034 132.32544922 -9.73046875 133.1875 C-10.78041016 133.80367187 -11.83035156 134.41984375 -12.91210938 135.0546875 C-13.99298828 135.69664062 -15.07386719 136.33859375 -16.1875 137 C-17.27998047 137.64195312 -18.37246094 138.28390625 -19.49804688 138.9453125 C-25.31542111 142.36617738 -25.31542111 142.36617738 -31 146 C-31.22107787 148.7885289 -31.28107535 151.34653181 -31.1875 154.125 C-31.16719727 155.25615234 -31.16719727 155.25615234 -31.14648438 156.41015625 C-31.11109985 158.27374127 -31.05729167 160.13695978 -31 162 C-28.37886292 162 -26.49064888 161.68707555 -24 161 C-24.268125 159.845 -24.53625 158.69 -24.8125 157.5 C-24.82421875 155.2890625 -24.82421875 155.2890625 -24 153 C-20.52535651 150.12848203 -16.70287836 148.03923539 -12.73632812 145.94042969 C-10.21174669 144.5730664 -7.80328398 143.03024997 -5.375 141.5 C-1.37234043 139 -1.37234043 139 2 139 C2.32329201 143.97984471 2.55799957 148.95351535 2.71411133 153.94140625 C2.77919461 155.63389455 2.86770958 157.3256597 2.98071289 159.015625 C3.70271507 170.09721497 3.70271507 170.09721497 2 175 C-1.745029 179.00862479 -6.02115819 180.83725422 -11 183 C-13.11169409 184.1986292 -15.20871904 185.42352929 -17.2890625 186.67578125 C-19.39987246 187.89005557 -21.51187512 189.10225868 -23.625 190.3125 C-25.88817968 191.6117025 -28.15119907 192.91118426 -30.4140625 194.2109375 C-32.07356934 195.16371582 -32.07356934 195.16371582 -33.76660156 196.13574219 C-36.79704453 197.88298339 -39.8185209 199.64444193 -42.8359375 201.4140625 C-43.71427246 201.92799561 -44.59260742 202.44192871 -45.49755859 202.97143555 C-47.13007782 203.92785291 -48.76070811 204.88750401 -50.38916016 205.85083008 C-55.77718834 209 -55.77718834 209 -58 209 C-58 183.59 -58 158.18 -58 132 C-48.76 126.72 -39.52 121.44 -30 116 C-24.09950085 112.58436288 -18.20054306 109.16689889 -12.31445312 105.7265625 C-11.28384766 105.1284375 -10.25324219 104.5303125 -9.19140625 103.9140625 C-8.30654541 103.3979541 -7.42168457 102.8818457 -6.51000977 102.35009766 C-4.01512764 101.00813694 -1.71514479 99.81940572 1 99 C3.84383486 100.19087523 6.20012119 101.41345633 8.8125 103 C9.59238281 103.4535083 10.37226563 103.9070166 11.17578125 104.37426758 C12.8856657 105.37131055 14.59071157 106.3766855 16.29150391 107.38916016 C19.05268614 109.03133434 21.82677221 110.64937686 24.60546875 112.26171875 C28.62983004 114.5986079 32.64887751 116.94425464 36.6640625 119.296875 C43.05281968 123.03634575 49.46114325 126.74128102 55.875 130.4375 C56.94588867 131.05463867 58.01677734 131.67177734 59.12011719 132.30761719 C61.3016841 133.56458106 63.48332517 134.82141625 65.66503906 136.078125 C69.08753544 138.05044502 72.50884627 140.02481137 75.9296875 142 C86.93984459 148.35670154 97.95051146 154.71183652 109 161 C110.4909073 154.91212852 111.5655887 148.93123921 109 143 C103.43771175 137.29886491 95.54595376 134.15452062 88.47265625 130.72851562 C82.86846826 127.93902948 77.51682363 124.73761209 72.125 121.5625 C69.94146101 120.30103386 67.75655587 119.0419296 65.5703125 117.78515625 C59.04513761 114.02644621 52.52234047 110.26362583 46 106.5 C39.86288313 102.95879797 33.72562239 99.4178489 27.5866394 95.87988281 C25.19573403 94.50193062 22.80501328 93.12365828 20.41430664 91.74536133 C18.73016037 90.77459018 17.04574769 89.80428126 15.36132812 88.83398438 C14.33845703 88.24423828 13.31558594 87.65449219 12.26171875 87.046875 C11.36412842 86.52963867 10.46653809 86.01240234 9.54174805 85.47949219 C7 84 7 84 4.48364258 82.24707031 C2.09702753 80.79407239 2.09702753 80.79407239 -0.4519043 81.1184082 C-3.45670252 82.15801023 -6.01661294 83.51047621 -8.76953125 85.10546875 C-9.89496338 85.75322266 -11.02039551 86.40097656 -12.17993164 87.06835938 C-13.39081365 87.77469521 -14.60166919 88.4810764 -15.8125 89.1875 C-17.05748515 89.90625094 -18.30285106 90.62434275 -19.54858398 91.34179688 C-25.74612635 94.91753776 -31.91804265 98.53596428 -38.078125 102.17578125 C-39.17278076 102.82071533 -40.26743652 103.46564941 -41.39526367 104.13012695 C-43.4747969 105.35784182 -45.55062188 106.59186395 -47.62231445 107.83276367 C-48.55261475 108.38295166 -49.48291504 108.93313965 -50.44140625 109.5 C-51.25295166 109.9846875 -52.06449707 110.469375 -52.90063477 110.96875 C-55 112 -55 112 -58 112 C-58.51221835 102.05704031 -58.90177381 92.11725996 -59.13986778 82.16374683 C-59.25423178 77.53969692 -59.40883618 72.92472609 -59.65966797 68.3059082 C-61.23021383 38.60834483 -61.23021383 38.60834483 -55.99121094 31.13418579 C-50.91466337 26.58221563 -45.13116036 24.15760164 -38.73443604 21.97927856 C-35.01706517 20.64798335 -31.84446875 18.75101226 -28.515625 16.66015625 C-26.42781441 15.45966516 -24.33930603 14.26038656 -22.25 13.0625 C-14.78802181 8.78096251 -7.35851696 4.45744517 0 0 Z " fill="#C9CBCE" transform="translate(249,70)"/>
<path d="M0 0 C10.50022503 5.18244756 10.50022503 5.18244756 15.2421875 7.98828125 C16.1499292 8.52219482 17.0576709 9.0561084 17.99291992 9.60620117 C18.94400635 10.16927979 19.89509277 10.7323584 20.875 11.3125 C31.47653299 17.5456722 42.1350242 23.67161327 52.82177734 29.75708008 C53.94664551 30.39798584 55.07151367 31.0388916 56.23046875 31.69921875 C57.22457764 32.26471436 58.21868652 32.83020996 59.24291992 33.4128418 C60.15275635 33.936604 61.06259277 34.46036621 62 35 C62.92337158 35.41870361 63.84674316 35.83740723 64.7980957 36.26879883 C67 38 67 38 67.79150391 40.82836914 C67.89500461 42.21679603 67.95824542 43.60834696 68 45 C68.0396991 45.96590057 68.07939819 46.93180115 68.12030029 47.92697144 C68.34699466 54.95623067 68.37335777 61.98826393 68.36453819 69.02065945 C68.36079705 72.58839099 68.38212554 76.15209029 68.46289062 79.71899414 C68.54090627 83.19093325 68.55470148 86.65782149 68.52452469 90.1304493 C68.52346085 92.07834299 68.5865089 94.02593598 68.65097046 95.97276306 C68.58120881 99.72634029 68.37040179 102.49880748 67 106 C63.0273969 109.59708493 58.84432357 111.69487153 54 114 C51.79273241 115.22567371 49.62466249 116.50679806 47.44921875 117.7890625 C45.19637346 119.06957672 42.94243321 120.34816611 40.6875 121.625 C38.21390363 123.0309032 35.74154681 124.43897565 33.26953125 125.84765625 C32.65392334 126.19833664 32.03831543 126.54901703 31.40405273 126.9103241 C25.538358 130.25562134 19.70294798 133.65189789 13.875 137.0625 C5.45539922 141.98977599 -2.98339575 146.88215128 -11.4375 151.75 C-21.32497613 157.44425801 -31.18125492 163.18806872 -41 169 C-39.41779413 169.96019364 -37.83418669 170.91807798 -36.25 171.875 C-35.36828125 172.40867187 -34.4865625 172.94234375 -33.578125 173.4921875 C-32.72734375 173.98976563 -31.8765625 174.48734375 -31 175 C-30.33484375 175.41507813 -29.6696875 175.83015625 -28.984375 176.2578125 C-26.29383431 177.26411709 -24.76187149 176.7211073 -22 176 C-19.76860536 174.97982275 -19.76860536 174.97982275 -17.5859375 173.6640625 C-16.75296143 173.18283936 -15.91998535 172.70161621 -15.06176758 172.20581055 C-14.17513428 171.68414307 -13.28850098 171.16247559 -12.375 170.625 C-11.44131592 170.08335205 -10.50763184 169.5417041 -9.5456543 168.98364258 C-7.61741819 167.86429001 -5.69090815 166.74195891 -3.76611328 165.61669922 C-0.53693687 163.72935533 2.70086635 161.85727936 5.93969727 159.98657227 C8.25287477 158.64971797 10.56406468 157.30947603 12.875 155.96875 C17.70284385 153.16966834 22.53790443 150.38319379 27.37329102 147.59716797 C38.18692818 141.36628252 48.98942718 135.11726221 59.75292969 128.80004883 C64.00012231 126.31104478 68.24999871 123.8414346 72.57421875 121.48828125 C73.23905273 121.123396 73.90388672 120.75851074 74.58886719 120.38256836 C76.28116816 119.46020622 77.98198156 118.5535068 79.68359375 117.6484375 C82.08560608 116.26651496 82.08560608 116.26651496 82.63867188 114.27334595 C83.08327718 111.47605007 83.11154103 108.81167088 83.09765625 105.97802734 C83.09435303 104.76351898 83.0910498 103.54901062 83.08764648 102.29769897 C83.07519897 100.33662704 83.07519897 100.33662704 83.0625 98.3359375 C83.05809331 96.97881239 83.05427696 95.62168525 83.05102539 94.26455688 C83.03961523 89.96800837 83.02035979 85.6715142 83 81.375 C82.97641522 76.38903824 82.95602947 71.40310714 82.94406128 66.41710281 C82.93756853 64.41952045 82.92499344 62.42196088 82.91235352 60.42440796 C82.90905029 59.21620392 82.90574707 58.00799988 82.90234375 56.76318359 C82.89710693 55.69603119 82.89187012 54.62887878 82.88647461 53.52938843 C83 51 83 51 84 49 C87.32996858 49.65531035 89.81527385 50.90597101 92.7265625 52.6328125 C93.66330811 53.18437012 94.60005371 53.73592773 95.56518555 54.30419922 C96.57492432 54.90506348 97.58466309 55.50592773 98.625 56.125 C100.78993547 57.40176957 102.95531601 58.67778469 105.12109375 59.953125 C106.24757324 60.61763672 107.37405273 61.28214844 108.53466797 61.96679688 C113.11201364 64.65903011 117.71852344 67.30031317 122.32397461 69.9440918 C150.58358043 86.16716086 150.58358043 86.16716086 152 89 C152.09160337 91.06292985 152.1175118 93.12888885 152.11352539 95.19384766 C152.11344986 96.49504547 152.11337433 97.79624329 152.11329651 99.13687134 C152.10818947 100.56260211 152.10297347 101.9883325 152.09765625 103.4140625 C152.09579147 104.86851961 152.09436785 106.32297734 152.09336853 107.7774353 C152.08954805 111.60792776 152.07972176 115.43838237 152.06866455 119.26885986 C152.05844035 123.17663053 152.05386874 127.08440731 152.04882812 130.9921875 C152.03809908 138.6614756 152.02102828 146.3307325 152 154 C147.87547566 154 146.81873512 153.60546896 143.40234375 151.62109375 C142.07493164 150.85635742 142.07493164 150.85635742 140.72070312 150.07617188 C139.80224609 149.53541016 138.88378906 148.99464844 137.9375 148.4375 C137.04611328 147.92380859 136.15472656 147.41011719 135.23632812 146.88085938 C133.41492621 145.82373714 131.60589738 144.74503241 129.80932617 143.64624023 C126.99739675 141.94053558 126.99739675 141.94053558 123.88793945 140.54321289 C120.73859474 138.9384561 118.43064964 137.5744385 116 135 C114.67160998 130.12023817 114.95081673 125.57295149 115.3125 120.5625 C115.38694336 118.60666992 115.38694336 118.60666992 115.46289062 116.61132812 C115.59221132 113.40182368 115.77258837 110.20380043 116 107 C119.76687864 107 120.91190305 107.23537317 124 109 C124.54333226 105.68738407 124.54333226 105.68738407 124 102 C121.75161934 100.07590502 120.05780823 98.894581 117.5 97.5625 C116.87996094 97.21251953 116.25992188 96.86253906 115.62109375 96.50195312 C114.0937775 95.64430631 112.54844287 94.81888806 111 94 C109.935702 101.96160906 109.95742683 109.71722061 110.12695312 117.73632812 C110.13791016 118.71408203 110.14886719 119.69183594 110.16015625 120.69921875 C110.18541382 122.01152466 110.18541382 122.01152466 110.21118164 123.3503418 C109.95357264 126.58251577 109.33472598 129.03755941 108 132 C105.85888672 133.74414062 105.85888672 133.74414062 103.1796875 135.15625 C102.18219482 135.69620605 101.18470215 136.23616211 100.15698242 136.79248047 C99.07392822 137.35596191 97.99087402 137.91944336 96.875 138.5 C94.57568658 139.74008285 92.27753623 140.98232431 89.98046875 142.2265625 C89.39435318 142.54102325 88.80823761 142.85548401 88.20436096 143.17947388 C82.4482358 146.27146815 76.81445882 149.55554005 71.1875 152.875 C62.49285501 157.97815971 53.75991458 163.01009764 45 168 C35.34040324 173.50353801 25.71708232 179.06521199 16.12426758 184.68457031 C6.78953487 190.14369762 -2.60108947 195.50347648 -12.00195312 200.84765625 C-13.69674805 201.81251953 -13.69674805 201.81251953 -15.42578125 202.796875 C-16.43036377 203.36760742 -17.43494629 203.93833984 -18.4699707 204.52636719 C-20.3509888 205.621979 -22.18876691 206.79251127 -24 208 C-27.98290637 207.66771323 -30.85170028 206.15325044 -34.26171875 204.1484375 C-35.28571777 203.55160156 -36.3097168 202.95476562 -37.36474609 202.33984375 C-38.46125488 201.69144531 -39.55776367 201.04304687 -40.6875 200.375 C-41.8389199 199.70107817 -42.99078305 199.02791315 -44.14306641 198.35546875 C-46.54711521 196.95178076 -48.94920404 195.54481937 -51.35009766 194.13574219 C-57.17217407 190.72332992 -63.02572433 187.36550046 -68.875 184 C-76.93134074 179.35829626 -84.97278315 174.69190201 -93 170 C-89.50945761 166.21156346 -86.28462278 163.85841022 -81.6875 161.5625 C-74.88779372 158.07219559 -68.27721752 154.30857766 -61.6875 150.4375 C-59.60549506 149.21610098 -57.52346326 147.99474776 -55.44140625 146.7734375 C-54.38195801 146.15178711 -53.32250977 145.53013672 -52.23095703 144.88964844 C-46.87560707 141.75753353 -41.5007066 138.65950655 -36.125 135.5625 C-35.05072754 134.94334717 -33.97645508 134.32419434 -32.86962891 133.6862793 C-30.68418642 132.42690217 -28.49863914 131.16770688 -26.31298828 129.90869141 C-18.56184997 125.44307613 -10.8136471 120.97237265 -3.06640625 116.5 C0.69423034 114.32915409 4.45702475 112.1621685 8.22265625 110 C17.03943134 104.92836458 25.77564789 99.75693319 34.39257812 94.35058594 C35.09962891 93.91133789 35.80667969 93.47208984 36.53515625 93.01953125 C37.157854 92.62870361 37.78055176 92.23787598 38.42211914 91.83520508 C40 91 40 91 42 91 C42.12955117 85.85731528 42.18613415 80.72072788 42.17700195 75.57641602 C42.18395155 73.82948111 42.21036939 72.08250577 42.25708008 70.33618164 C42.85885094 60.08775065 42.85885094 60.08775065 38.61181641 51.28955078 C34.59626272 48.67640234 30.68108986 46.99956793 26 46 C25.58274322 49.37400578 25.58274322 49.37400578 26 53 C28.41055254 54.66299965 28.41055254 54.66299965 31 56 C32.05134984 59.5802406 32.11750881 63.02585204 32.09765625 66.73828125 C32.09282227 68.33833008 32.09282227 68.33833008 32.08789062 69.97070312 C32.07532227 71.62489258 32.07532227 71.62489258 32.0625 73.3125 C32.05798828 74.43462891 32.05347656 75.55675781 32.04882812 76.71289062 C32.03707313 79.4753151 32.02064077 82.23762998 32 85 C27.67961455 84.40587224 24.61012338 82.84561639 20.859375 80.65625 C20.29172424 80.32709595 19.72407349 79.99794189 19.13922119 79.65881348 C17.33888425 78.61245638 15.54456389 77.55622078 13.75 76.5 C12.52900355 75.78974928 11.30765273 75.08010738 10.0859375 74.37109375 C1.18757656 69.18757656 1.18757656 69.18757656 0 68 C-0.0942174 65.88318683 -0.11742761 63.76319242 -0.11352539 61.64428711 C-0.11367142 60.98089828 -0.11381744 60.31750946 -0.1139679 59.63401794 C-0.11326881 57.43176044 -0.10547665 55.22958655 -0.09765625 53.02734375 C-0.09579206 51.50419664 -0.09436816 49.98104893 -0.09336853 48.457901 C-0.08954346 44.44162349 -0.07971328 40.42538192 -0.06866455 36.40911865 C-0.05845019 32.31376634 -0.05387086 28.21840824 -0.04882812 24.12304688 C-0.038091 16.08201472 -0.02101472 8.04101183 0 0 Z " fill="#2AB0E2" transform="translate(276,222)"/>
<path d="M0 0 C0.00331015 0.79606313 0.00662029 1.59212626 0.01003075 2.41231251 C0.09118646 21.76595015 0.18325437 41.11950757 0.28752708 60.47303486 C0.33768797 69.83218558 0.38413044 79.1913274 0.421875 88.55053711 C0.4547755 96.70628155 0.49459588 104.86195752 0.54279006 113.01762646 C0.56807442 117.337562 0.58984993 121.657452 0.60334396 125.97744179 C0.61614681 130.04119285 0.63818182 134.10478791 0.66738319 138.16845322 C0.67647292 139.66201659 0.68215244 141.1556051 0.68421364 142.64919472 C0.68752618 144.68444413 0.70416154 146.71965901 0.7215271 148.75483704 C0.72705786 149.89509496 0.73258862 151.03535288 0.73828697 152.21016407 C0.79707324 155.20971918 0.79707324 155.20971918 3 158 C1.02 158 -0.96 158 -3 158 C-3 107.51 -3 57.02 -3 5 C-4.98 5.99 -4.98 5.99 -7 7 C-7 6.01 -7 5.02 -7 4 C-6.01 4 -5.02 4 -4 4 C-4 3.01 -4 2.02 -4 1 C-2 0 -2 0 0 0 Z " fill="#227B9F" transform="translate(183,158)"/>
<path d="M0 0 C0.99 0.33 1.98 0.66 3 1 C3 4.63 3 8.26 3 12 C0.36 11.67 -2.28 11.34 -5 11 C-4.67 17.93 -4.34 24.86 -4 32 C-3.01 32 -2.02 32 -1 32 C-1 32.66 -1 33.32 -1 34 C-0.34 34 0.32 34 1 34 C1 35.65 1 37.3 1 39 C-1.9719385 37.87548273 -4.33440687 36.77706209 -7 35 C-7.34057617 32.20263672 -7.34057617 32.20263672 -7.29296875 28.6796875 C-7.28330078 27.42285156 -7.27363281 26.16601562 -7.26367188 24.87109375 C-7.23853516 23.55238281 -7.21339844 22.23367188 -7.1875 20.875 C-7.17245483 19.53517097 -7.15876613 18.19532596 -7.14648438 16.85546875 C-7.11102872 13.56991158 -7.06160849 10.28515418 -7 7 C-3.23312136 7 -2.08809695 7.23537317 1 9 C1.26932521 4.34947128 1.26932521 4.34947128 0 0 Z " fill="#1E7292" transform="translate(399,322)"/>
<path d="M0 0 C-0.33 1.32 -0.66 2.64 -1 4 C-1.66 4 -2.32 4 -3 4 C-3 4.66 -3 5.32 -3 6 C-4.24460783 6.67667998 -5.49596896 7.34094719 -6.75 8 C-7.44609375 8.37125 -8.1421875 8.7425 -8.859375 9.125 C-11 10 -11 10 -15 10 C-15 10.99 -15 11.98 -15 13 C-16.43554025 13.50559908 -17.8735202 14.0042749 -19.3125 14.5 C-20.11300781 14.7784375 -20.91351563 15.056875 -21.73828125 15.34375 C-24 16 -24 16 -27 16 C-27.185625 16.61875 -27.37125 17.2375 -27.5625 17.875 C-29.74034913 21.09442916 -32.30594962 21.27438296 -36 22 C-36.66 21.67 -37.32 21.34 -38 21 C-33.19031544 18.16099285 -28.37687281 15.32850366 -23.55957031 12.50244141 C-21.82643165 11.48510686 -20.09403075 10.46651459 -18.36230469 9.44677734 C-15.76490807 7.91847492 -13.16410768 6.39612039 -10.5625 4.875 C-9.74031982 4.38990967 -8.91813965 3.90481934 -8.07104492 3.4050293 C-7.30638916 2.9594165 -6.5417334 2.51380371 -5.75390625 2.0546875 C-4.73792358 1.45889893 -4.73792358 1.45889893 -3.70141602 0.85107422 C-2 0 -2 0 0 0 Z " fill="#2789AE" transform="translate(320,361)"/>
<path d="M0 0 C0 0.99 0 1.98 0 3 C-0.66 3.66 -1.32 4.32 -2 5 C-1.67 5.66 -1.34 6.32 -1 7 C-1.99 8.485 -1.99 8.485 -3 10 C-3.99 10 -4.98 10 -6 10 C-5.67 11.32 -5.34 12.64 -5 14 C-8.59391114 12.66511872 -11.75490696 11.03977277 -15 9 C-11.6214602 5.03388806 -5.46055995 0 0 0 Z " fill="#2BA1CC" transform="translate(88,368)"/>
<path d="M0 0 C3.95655257 1.31885086 6.38376069 2.72610984 9 6 C9.48101807 8.94866943 9.48101807 8.94866943 9.45410156 12.42089844 C9.45379944 13.72194519 9.45349731 15.02299194 9.45318604 16.36346436 C9.43276086 17.77877415 9.4118969 19.19407768 9.390625 20.609375 C9.38316145 22.06096619 9.37746905 23.51256748 9.37347412 24.96417236 C9.35822643 28.77846258 9.31895309 32.59214021 9.2746582 36.40618896 C9.23368623 40.30065627 9.21545906 44.19522289 9.1953125 48.08984375 C9.15245713 55.72684129 9.08421739 63.3633347 9 71 C7.68 71 6.36 71 5 71 C5.99 70.505 5.99 70.505 7 70 C6.67 48.55 6.34 27.1 6 5 C5.34 5 4.68 5 4 5 C4 4.34 4 3.68 4 3 C2.68 2.67 1.36 2.34 0 2 C0 1.34 0 0.68 0 0 Z " fill="#145C77" transform="translate(419,305)"/>
<path d="M0 0 C3.96 1.98 3.96 1.98 8 4 C7.01 4.66 6.02 5.32 5 6 C3.68 5.01 2.36 4.02 1 3 C1.33 24.12 1.66 45.24 2 67 C2.99 67.33 3.98 67.66 5 68 C5 68.66 5 69.32 5 70 C3.35 69.34 1.7 68.68 0 68 C0 45.56 0 23.12 0 0 Z " fill="#3EA8D1" transform="translate(276,222)"/>
<path d="M0 0 C-0.33 0.99 -0.66 1.98 -1 3 C-1.66 3 -2.32 3 -3 3 C-3.0825 4.27875 -3.165 5.5575 -3.25 6.875 C-3.75897129 10.74043062 -3.75897129 10.74043062 -5.625 12.75 C-9.51117999 13.15907158 -11.78644324 11.10117173 -15 9 C-11.6214602 5.03388806 -5.46055995 0 0 0 Z " fill="#299AC2" transform="translate(208,299)"/>
<path d="M0 0 C2.3125 1 2.3125 1 4.3125 4 C6.86433404 5.20450304 6.86433404 5.20450304 9.3125 6 C8.9825 6.66 8.6525 7.32 8.3125 8 C4.57569312 9.13868364 0.84342843 9.59181081 -2.83984375 8.16796875 C-4.75 7.0625 -4.75 7.0625 -7.6875 5 C-3.41920732 0 -3.41920732 0 0 0 Z " fill="#2BADDD" transform="translate(190.6875,387)"/>
<path d="M0 0 C1.60407328 -0.02708567 3.2082785 -0.04643483 4.8125 -0.0625 C5.70582031 -0.07410156 6.59914062 -0.08570313 7.51953125 -0.09765625 C10 0 10 0 13 1 C13.33 0.67 13.66 0.34 14 0 C16.67058851 -0.14115161 19.32432238 -0.04247107 22 0 C20.5 1.25 20.5 1.25 18 3 C17.44054687 3.42925781 16.88109375 3.85851562 16.3046875 4.30078125 C14.11991706 5.729285 12.58620492 6.56166018 10 7 C6.24285869 5.56564976 3.11421313 3.53348896 0 1 C0 0.67 0 0.34 0 0 Z " fill="#2896BF" transform="translate(205,355)"/>
<path d="M0 0 C0 0.66 0 1.32 0 2 C-0.99 2 -1.98 2 -3 2 C-3.33 4.31 -3.66 6.62 -4 9 C-6.33333333 9 -8.66666667 9 -11 9 C-11.33 9.66 -11.66 10.32 -12 11 C-14.31 11 -16.62 11 -19 11 C-16.22312644 7.75177521 -12.60938618 5.87816944 -8.9375 3.8125 C-8.30005859 3.44447266 -7.66261719 3.07644531 -7.00585938 2.69726562 C-2.25687036 0 -2.25687036 0 0 0 Z " fill="#268FB8" transform="translate(217,372)"/>
<path d="M0 0 C0.721875 0.144375 1.44375 0.28875 2.1875 0.4375 C3.97836987 0.79567397 5.76996832 1.15023772 7.5625 1.5 C10 2 10 2 12.1875 2.625 C14.08903493 3.21346359 14.08903493 3.21346359 16 2 C15.938125 2.78375 15.87625 3.5675 15.8125 4.375 C15.874375 5.24125 15.93625 6.1075 16 7 C16.99 7.66 17.98 8.32 19 9 C19 9.66 19 10.32 19 11 C14.25652774 9.62309544 10.27474838 7.56160559 6.125 4.9375 C5.53203125 4.57333984 4.9390625 4.20917969 4.328125 3.83398438 C2.86464287 2.9218371 1.4292745 1.96486632 0 1 C0 0.67 0 0.34 0 0 Z " fill="#2B98BF" transform="translate(199,400)"/>
<path d="M0 0 C-3.28380602 2.03382681 -6.57821272 4.04979562 -9.875 6.0625 C-10.81214844 6.64322266 -11.74929687 7.22394531 -12.71484375 7.82226562 C-13.61074219 8.36689453 -14.50664062 8.91152344 -15.4296875 9.47265625 C-16.25710449 9.98062744 -17.08452148 10.48859863 -17.93701172 11.01196289 C-18.61779785 11.33801514 -19.29858398 11.66406738 -20 12 C-20.66 11.67 -21.32 11.34 -22 11 C-21.34 9.68 -20.68 8.36 -20 7 C-19.01 7.33 -18.02 7.66 -17 8 C-16.34 6.68 -15.68 5.36 -15 4 C-14.01 4 -13.02 4 -12 4 C-11.67 3.34 -11.34 2.68 -11 2 C-4.29863871 -1.41390103 -4.29863871 -1.41390103 0 0 Z " fill="#2992BB" transform="translate(257,378)"/>
<path d="M0 0 C1.32 0.33 2.64 0.66 4 1 C1.54732365 2.53068488 -0.91133894 4.04968623 -3.375 5.5625 C-4.07367188 6.00013672 -4.77234375 6.43777344 -5.4921875 6.88867188 C-7.29185903 7.98750978 -9.14322343 9.00067867 -11 10 C-11.66 9.67 -12.32 9.34 -13 9 C-12.67 8.34 -12.34 7.68 -12 7 C-12.66 6.67 -13.32 6.34 -14 6 C-14.33 5.01 -14.66 4.02 -15 3 C-13.125 2.375 -13.125 2.375 -11 2 C-10.34 2.66 -9.68 3.32 -9 4 C-7.10332891 3.71447643 -7.10332891 3.71447643 -5 3 C-3.33480481 2.65939189 -1.66842534 2.32441604 0 2 C0 1.34 0 0.68 0 0 Z " fill="#2894BB" transform="translate(369,359)"/>
<path d="M0 0 C-0.33 2.31 -0.66 4.62 -1 7 C-3.88211302 7.96070434 -5.69850044 8.10581883 -8.6875 8.0625 C-9.89986328 8.04896484 -9.89986328 8.04896484 -11.13671875 8.03515625 C-12.05904297 8.01775391 -12.05904297 8.01775391 -13 8 C-13 8.66 -13 9.32 -13 10 C-14.32 9.67 -15.64 9.34 -17 9 C-14.54481265 7.49462965 -12.0861548 5.99555574 -9.625 4.5 C-8.92632812 4.07074219 -8.22765625 3.64148438 -7.5078125 3.19921875 C-2.2265625 0 -2.2265625 0 0 0 Z " fill="#268DB4" transform="translate(105,358)"/>
<path d="M0 0 C5.26797595 2.00160969 9.95421018 4.73302621 14.8125 7.5625 C15.69615234 8.06974609 16.57980469 8.57699219 17.49023438 9.09960938 C18.32490234 9.58365234 19.15957031 10.06769531 20.01953125 10.56640625 C20.78370361 11.00927979 21.54787598 11.45215332 22.33520508 11.90844727 C22.8845874 12.26865967 23.43396973 12.62887207 24 13 C24 13.33 24 13.66 24 14 C22.35 14 20.7 14 19 14 C19 13.34 19 12.68 19 12 C16.525 11.505 16.525 11.505 14 11 C14 10.34 14 9.68 14 9 C13.01 9.33 12.02 9.66 11 10 C10.67 9.01 10.34 8.02 10 7 C9.01 7 8.02 7 7 7 C7 6.34 7 5.68 7 5 C6.21625 4.9175 5.4325 4.835 4.625 4.75 C2 4 2 4 0.6875 1.9375 C0.460625 1.298125 0.23375 0.65875 0 0 Z " fill="#22779B" transform="translate(141,338)"/>
<path d="M0 0 C0 0.66 0 1.32 0 2 C-0.99 2 -1.98 2 -3 2 C-3.33 2.99 -3.66 3.98 -4 5 C-4.78375 5.309375 -5.5675 5.61875 -6.375 5.9375 C-9.38974952 7.15775576 -10.12446869 8.44245731 -12 11 C-12.99 11 -13.98 11 -15 11 C-16.20628008 8.66785852 -17.1654738 6.50357861 -18 4 C-16.5459375 4.4021875 -16.5459375 4.4021875 -15.0625 4.8125 C-10.51671795 5.51756007 -7.66944038 3.49859659 -3.91796875 1.12890625 C-2 0 -2 0 0 0 Z " fill="#2686AE" transform="translate(263,394)"/>
<path d="M0 0 C0.99773437 0.02320313 1.99546875 0.04640625 3.0234375 0.0703125 C4.52777344 0.09738281 4.52777344 0.09738281 6.0625 0.125 C6.83335937 0.14820313 7.60421875 0.17140625 8.3984375 0.1953125 C5.99153947 2.92206409 3.47372727 4.31497846 0.2109375 5.8828125 C-0.69011719 6.31980469 -1.59117187 6.75679688 -2.51953125 7.20703125 C-3.55013672 7.69623047 -3.55013672 7.69623047 -4.6015625 8.1953125 C-4.7265625 5.3203125 -4.7265625 5.3203125 -4.6015625 2.1953125 C-2.6015625 0.1953125 -2.6015625 0.1953125 0 0 Z " fill="#2A9AC2" transform="translate(303.6015625,393.8046875)"/>
<path d="M0 0 C1.65 0 3.3 0 5 0 C6.66577625 3.33155251 6.12007856 7.06536059 6.09765625 10.7265625 C6.0962413 11.58937836 6.09482635 12.45219421 6.09336853 13.34115601 C6.08776188 16.1024723 6.07520827 18.86370812 6.0625 21.625 C6.05748586 23.4947905 6.0529228 25.36458226 6.04882812 27.234375 C6.03779029 31.82294777 6.0205212 36.41146023 6 41 C5.67 41 5.34 41 5 41 C4.98598145 39.35016113 4.98598145 39.35016113 4.97167969 37.66699219 C4.93177063 33.58145834 4.86600996 29.49667681 4.79248047 25.41162109 C4.76427603 23.64446689 4.74305882 21.87718666 4.72900391 20.10986328 C4.70756642 17.56737778 4.66091497 15.02640662 4.609375 12.484375 C4.60814636 11.69569031 4.60691772 10.90700562 4.60565186 10.09442139 C4.50703979 6.39138237 4.32208067 4.39986153 1.96191406 1.46972656 C1.31448242 0.9847168 0.66705078 0.49970703 0 0 Z " fill="#38A2C7" transform="translate(313,272)"/>
<path d="M0 0 C3.62276315 1.3255581 6.63505348 2.94346955 9.8125 5.125 C10.60269531 5.66382813 11.39289063 6.20265625 12.20703125 6.7578125 C12.79871094 7.16773438 13.39039063 7.57765625 14 8 C10.98112756 11.48331435 8.43090471 12.79157144 4 14 C4 12 4 12 6 10 C7.32 10 8.64 10 10 10 C9.67 8.68 9.34 7.36 9 6 C8.2575 5.9175 7.515 5.835 6.75 5.75 C3.47402617 4.85655259 2.16408188 3.56483779 0 1 C0 0.67 0 0.34 0 0 Z " fill="#277FA2" transform="translate(184,363)"/>
<path d="M0 0 C-0.33 1.32 -0.66 2.64 -1 4 C-1.66 4 -2.32 4 -3 4 C-3 4.66 -3 5.32 -3 6 C-4.28913487 6.67154933 -5.58140204 7.33708859 -6.875 8 C-7.59429687 8.37125 -8.31359375 8.7425 -9.0546875 9.125 C-11 10 -11 10 -13 10 C-12.38708324 6.9354162 -11.5024152 5.35140572 -8.93359375 3.5546875 C-2.60625 0 -2.60625 0 0 0 Z " fill="#2991B8" transform="translate(320,361)"/>
<path d="M0 0 C0 0.66 0 1.32 0 2 C1.32 2.33 2.64 2.66 4 3 C2.25 3.625 2.25 3.625 0 4 C-0.9590625 3.443125 -0.9590625 3.443125 -1.9375 2.875 C-2.9584375 2.441875 -2.9584375 2.441875 -4 2 C-5.68496298 2.96885372 -7.35178756 3.96986723 -9 5 C-11.25 4.875 -11.25 4.875 -13 4 C-13.33 3.01 -13.66 2.02 -14 1 C-11.525 1.495 -11.525 1.495 -9 2 C-9 1.34 -9 0.68 -9 0 C-5.62182575 -0.84454356 -3.32534757 -1.10844919 0 0 Z " fill="#2C92B5" transform="translate(228,317)"/>
<path d="M0 0 C0 0.66 0 1.32 0 2 C-0.99 2 -1.98 2 -3 2 C-3.226875 2.5775 -3.45375 3.155 -3.6875 3.75 C-5.42027339 6.72046866 -7.07533544 8.18020872 -10 10 C-13.8125 10.25 -13.8125 10.25 -17 10 C-14.38772848 7.04185281 -11.33429693 5.28123892 -7.9375 3.3125 C-6.87402344 2.68988281 -5.81054688 2.06726563 -4.71484375 1.42578125 C-2 0 -2 0 0 0 Z " fill="#2383A7" transform="translate(179,160)"/>
<path d="M0 0 C4.04301175 1.48518799 7.61146256 3.42877998 11.3125 5.625 C12.38113281 6.25664062 13.44976562 6.88828125 14.55078125 7.5390625 C15.76314453 8.26222656 15.76314453 8.26222656 17 9 C16.34 9.66 15.68 10.32 15 11 C12 11 12 11 10.3125 9.625 C9 8 9 8 9 6 C7.35 6.33 5.7 6.66 4 7 C2.45428722 4.68143083 1.20381448 2.49361571 0 0 Z " fill="#2584A8" transform="translate(192,319)"/>
<path d="M0 0 C0.66 0.33 1.32 0.66 2 1 C1.34 2.32 0.68 3.64 0 5 C-0.66 5 -1.32 5 -2 5 C-2.33 5.66 -2.66 6.32 -3 7 C-5.0625 7.625 -5.0625 7.625 -7 8 C-7 9.65 -7 11.3 -7 13 C-7.33 13 -7.66 13 -8 13 C-8.70053913 7.83352393 -8.70053913 7.83352393 -8 5 C-5.64888669 2.6918294 -3.09235353 1.13634678 0 0 Z " fill="#96A0A4" transform="translate(233,218)"/>
<path d="M0 0 C-4.49101628 4.04191465 -9.58984989 6.43674441 -15 9 C-15.33 8.01 -15.66 7.02 -16 6 C-14.35 6 -12.7 6 -11 6 C-11 4.35 -11 2.7 -11 1 C-10.34 1.66 -9.68 2.32 -9 3 C-8.62875 2.505 -8.2575 2.01 -7.875 1.5 C-5.25305607 -0.59755514 -3.26157528 -0.21743835 0 0 Z " fill="#278DB7" transform="translate(292,357)"/>
<path d="M0 0 C1.75215106 0.93347358 3.50163563 1.8719532 5.25 2.8125 C6.71179688 3.59560547 6.71179688 3.59560547 8.203125 4.39453125 C10.63355412 5.78965188 12.80787699 7.26195961 15 9 C11.47313219 10.1756226 10.08162929 9.54610097 6.78515625 8.02734375 C4.0218472 6.43708056 2.04611606 4.41813717 0 2 C0 1.34 0 0.68 0 0 Z " fill="#298CB5" transform="translate(261,310)"/>
<path d="M0 0 C-4.62 2.64 -9.24 5.28 -14 8 C-14.66 6.68 -15.32 5.36 -16 4 C-14.02 4 -12.04 4 -10 4 C-9.67 3.01 -9.34 2.02 -9 1 C-8.34 1.33 -7.68 1.66 -7 2 C-7 1.34 -7 0.68 -7 0 C-4 -1 -4 -1 0 0 Z " fill="#298CB3" transform="translate(330,385)"/>
<path d="M0 0 C1.32 0 2.64 0 4 0 C3.67 1.32 3.34 2.64 3 4 C1.68 4 0.36 4 -1 4 C-1.33 4.99 -1.66 5.98 -2 7 C-4.9375 8.25 -4.9375 8.25 -8 9 C-8.66 8.67 -9.32 8.34 -10 8 C-9.278125 7.59007812 -8.55625 7.18015625 -7.8125 6.7578125 C-6.884375 6.21898437 -5.95625 5.68015625 -5 5.125 C-4.071875 4.59132813 -3.14375 4.05765625 -2.1875 3.5078125 C-1.1046875 2.76144531 -1.1046875 2.76144531 0 2 C0 1.34 0 0.68 0 0 Z " fill="#247DA0" transform="translate(146,370)"/>
<path d="M0 0 C4.04301175 1.48518799 7.61146256 3.42877998 11.3125 5.625 C12.38113281 6.25664062 13.44976562 6.88828125 14.55078125 7.5390625 C15.76314453 8.26222656 15.76314453 8.26222656 17 9 C16.01 9.66 15.02 10.32 14 11 C14 10.34 14 9.68 14 9 C13.278125 8.896875 12.55625 8.79375 11.8125 8.6875 C8.72206579 7.93206053 6.58256159 6.84468685 4 5 C4 4.34 4 3.68 4 3 C2.68 2.67 1.36 2.34 0 2 C0 1.34 0 0.68 0 0 Z " fill="#247E9F" transform="translate(110,358)"/>
<path d="M0 0 C-1.20381448 2.49361571 -2.45428722 4.68143083 -4 7 C-5.9453125 7.29296875 -5.9453125 7.29296875 -8.125 7.1875 C-9.40375 7.125625 -10.6825 7.06375 -12 7 C-3.55172414 0 -3.55172414 0 0 0 Z " fill="#2A8EB6" transform="translate(310,318)"/>
<path d="M0 0 C-9.42857143 8 -9.42857143 8 -14 8 C-13.6362558 5.45379062 -13.42033309 4.31819607 -11.328125 2.734375 C-4.3956044 -0.54945055 -4.3956044 -0.54945055 0 0 Z " fill="#2D90B8" transform="translate(154,397)"/>
<path d="M0 0 C1.45945288 0.08708669 2.91765868 0.19526907 4.375 0.3125 C5.59316406 0.39951172 5.59316406 0.39951172 6.8359375 0.48828125 C9 1 9 1 11 4 C11.99 4.33 12.98 4.66 14 5 C14 5.66 14 6.32 14 7 C10.2397015 6.41892368 7.46964968 5.34800504 4.1875 3.4375 C3.39730469 2.98246094 2.60710937 2.52742188 1.79296875 2.05859375 C1.20128906 1.70925781 0.60960937 1.35992187 0 1 C0 0.67 0 0.34 0 0 Z " fill="#2C8EB0" transform="translate(412,368)"/>
<path d="M0 0 C2.97 0.495 2.97 0.495 6 1 C3.59310197 3.72675159 1.07528977 5.11966596 -2.1875 6.6875 C-3.08855469 7.12449219 -3.98960937 7.56148438 -4.91796875 8.01171875 C-5.60503906 8.33785156 -6.29210937 8.66398437 -7 9 C-7 8.01 -7 7.02 -7 6 C-6.01 6 -5.02 6 -4 6 C-3.67 5.01 -3.34 4.02 -3 3 C-1.68 3 -0.36 3 1 3 C0.67 2.01 0.34 1.02 0 0 Z " fill="#288FB5" transform="translate(315,339)"/>
<path d="M0 0 C2.4375 0.8125 2.4375 0.8125 5 2 C5.33 2.99 5.66 3.98 6 5 C-0.75 9 -0.75 9 -3 9 C-2.67 8.01 -2.34 7.02 -2 6 C-1.34 6 -0.68 6 0 6 C0.33 5.01 0.66 4.02 1 3 C1.33 2.67 1.66 2.34 2 2 C1.01 1.67 0.02 1.34 -1 1 C-0.67 0.67 -0.34 0.34 0 0 Z " fill="#2886A7" transform="translate(276,319)"/>
<path d="M0 0 C0.99 0 1.98 0 3 0 C2.67 1.65 2.34 3.3 2 5 C-4.52307692 4.38461538 -4.52307692 4.38461538 -6.9375 2.4375 C-7.288125 1.963125 -7.63875 1.48875 -8 1 C-5.36 1.33 -2.72 1.66 0 2 C0 1.34 0 0.68 0 0 Z " fill="#2B9EC9" transform="translate(132,356)"/>
<path d="M0 0 C1.32 0 2.64 0 4 0 C4 0.66 4 1.32 4 2 C4.9075 1.9175 5.815 1.835 6.75 1.75 C10 2 10 2 12.375 3.875 C14 6 14 6 14 8 C8.76481294 6.56032356 4.36973991 4.18303389 0 1 C0 0.67 0 0.34 0 0 Z " fill="#2888AF" transform="translate(90,386)"/>
<path d="M0 0 C2.97 1.65 5.94 3.3 9 5 C8.67 6.65 8.34 8.3 8 10 C6.68 9.67 5.36 9.34 4 9 C3.896875 8.401875 3.79375 7.80375 3.6875 7.1875 C2.90614947 4.70138466 1.85104584 3.77056558 0 2 C0 1.34 0 0.68 0 0 Z " fill="#A7B0B3" transform="translate(255,172)"/>
<path d="M0 0 C0.33 0.66 0.66 1.32 1 2 C-2.96 3.98 -2.96 3.98 -7 6 C-7 5.01 -7 4.02 -7 3 C-7.66 3 -8.32 3 -9 3 C-9 2.34 -9 1.68 -9 1 C-5.92677456 0.08941469 -3.19902639 -0.08886184 0 0 Z " fill="#B1B9BB" transform="translate(240,114)"/>
<path d="M0 0 C1.65 0 3.3 0 5 0 C-1.62771458 5.02792141 -1.62771458 5.02792141 -4.5 4.8125 C-7 4 -7 4 -10 1 C-6.7 1.33 -3.4 1.66 0 2 C0 1.34 0 0.68 0 0 Z " fill="#2586A7" transform="translate(254,425)"/>
<path d="M0 0 C0 0.66 0 1.32 0 2 C-0.99 2 -1.98 2 -3 2 C-3.185625 2.61875 -3.37125 3.2375 -3.5625 3.875 C-5.74034913 7.09442916 -8.30594962 7.27438296 -12 8 C-12.66 7.67 -13.32 7.34 -14 7 C-12.04480616 5.82807953 -10.0857461 4.6626071 -8.125 3.5 C-7.03445313 2.8503125 -5.94390625 2.200625 -4.8203125 1.53125 C-2 0 -2 0 0 0 Z " fill="#217294" transform="translate(296,375)"/>
<path d="M0 0 C0 0.66 0 1.32 0 2 C-0.99 2 -1.98 2 -3 2 C-3 2.99 -3 3.98 -3 5 C-9.96428571 8.34821429 -9.96428571 8.34821429 -14 7 C-12.04480616 5.82807953 -10.0857461 4.6626071 -8.125 3.5 C-7.03445313 2.8503125 -5.94390625 2.200625 -4.8203125 1.53125 C-2 0 -2 0 0 0 Z " fill="#2583A0" transform="translate(281,335)"/>
<path d="M0 0 C-1.95245185 1.19714555 -3.91214997 2.38248074 -5.875 3.5625 C-6.96554688 4.22378906 -8.05609375 4.88507813 -9.1796875 5.56640625 C-10.57574219 6.27603516 -10.57574219 6.27603516 -12 7 C-12.66 6.67 -13.32 6.34 -14 6 C-13.34 4.68 -12.68 3.36 -12 2 C-10.68 2.33 -9.36 2.66 -8 3 C-8 2.01 -8 1.02 -8 0 C-4.90645403 -0.99435406 -3.09720845 -0.87840996 0 0 Z " fill="#2484A8" transform="translate(260,337)"/>
<path d="M0 0 C3.26954202 0.56371414 4.82575883 1.49962266 7 4 C5.35 3.67 3.7 3.34 2 3 C1.67 5.31 1.34 7.62 1 10 C0.34 10 -0.32 10 -1 10 C-1.125 2.25 -1.125 2.25 0 0 Z " fill="#1E617E" transform="translate(360,271)"/>
<path d="M0 0 C4.97209562 1.76429199 9.43438061 4.3939166 14 7 C13.01 7.66 12.02 8.32 11 9 C11 8.34 11 7.68 11 7 C9.35 6.67 7.7 6.34 6 6 C6 5.34 6 4.68 6 4 C5.01 4.33 4.02 4.66 3 5 C1.5 3.625 1.5 3.625 0 2 C0 1.34 0 0.68 0 0 Z " fill="#2686AA" transform="translate(310,242)"/>
<path d="M0 0 C-1.95519384 1.17192047 -3.9142539 2.3373929 -5.875 3.5 C-6.96554687 4.1496875 -8.05609375 4.799375 -9.1796875 5.46875 C-12 7 -12 7 -14 7 C-14 6.01 -14 5.02 -14 4 C-12.35 4 -10.7 4 -9 4 C-9 3.34 -9 2.68 -9 2 C-5.96271914 -1.03728086 -4.06215635 -1.35405212 0 0 Z " fill="#2682A8" transform="translate(281,413)"/>
<path d="M0 0 C1.051875 0.495 2.10375 0.99 3.1875 1.5 C6.25452609 2.82779788 8.62134936 3.30715006 12 3 C11.01 4.485 11.01 4.485 10 6 C8.68 6 7.36 6 6 6 C6 5.34 6 4.68 6 4 C3.36 4.33 0.72 4.66 -2 5 C-1.34 3.35 -0.68 1.7 0 0 Z " fill="#1D6F90" transform="translate(123,376)"/>
<path d="M0 0 C3.625 0.375 3.625 0.375 7 1 C-0.71428571 7 -0.71428571 7 -4 7 C-2.92598892 4.08482708 -2.22189824 2.22189824 0 0 Z " fill="#2691BC" transform="translate(261,370)"/>
<path d="M0 0 C5.34844008 0.53484401 9.35796103 2.46690767 14 5 C12.328125 6.17578125 12.328125 6.17578125 10 7 C7.421875 5.91796875 7.421875 5.91796875 4.75 4.1875 C3.85796875 3.62417969 2.9659375 3.06085938 2.046875 2.48046875 C1.37140625 1.99191406 0.6959375 1.50335938 0 1 C0 0.67 0 0.34 0 0 Z " fill="#2A8DB2" transform="translate(281,292)"/>
<path d="M0 0 C1.65 0 3.3 0 5 0 C1.57611908 3.82669043 -1.00724943 5.72278474 -6 7 C-6.33 5.68 -6.66 4.36 -7 3 C-4.03 3.495 -4.03 3.495 -1 4 C-0.67 2.68 -0.34 1.36 0 0 Z " fill="#2D93BC" transform="translate(151,201)"/>
<path d="M0 0 C2.475 0.99 2.475 0.99 5 2 C5 2.66 5 3.32 5 4 C-0.41176471 8 -0.41176471 8 -3 8 C-3 7.01 -3 6.02 -3 5 C-2.34 4.67 -1.68 4.34 -1 4 C-0.34786708 1.97536745 -0.34786708 1.97536745 0 0 Z " fill="#2983A6" transform="translate(127,368)"/>
<path d="M0 0 C0 0.66 0 1.32 0 2 C-0.99 2 -1.98 2 -3 2 C-3.309375 2.639375 -3.61875 3.27875 -3.9375 3.9375 C-5 6 -5 6 -6 7 C-7.99958364 7.04080783 -10.00045254 7.04254356 -12 7 C-9.20232475 3.70861735 -4.40323273 0 0 0 Z " fill="#21779E" transform="translate(332,354)"/>
<path d="M0 0 C1.32 0.66 2.64 1.32 4 2 C0.37 3.98 -3.26 5.96 -7 8 C-7 6.68 -7 5.36 -7 4 C-5.68 4 -4.36 4 -3 4 C-3 3.34 -3 2.68 -3 2 C-2.01 2 -1.02 2 0 2 C0 1.34 0 0.68 0 0 Z " fill="#98A2A5" transform="translate(233,155)"/>
<path d="M0 0 C0.33 0 0.66 0 1 0 C1 5.94 1 11.88 1 18 C-0.65 18.66 -2.3 19.32 -4 20 C-4 19.01 -4 18.02 -4 17 C-2.68 16.67 -1.36 16.34 0 16 C0 10.72 0 5.44 0 0 Z " fill="#329FC7" transform="translate(383,336)"/>
<path d="M0 0 C0.33 0.66 0.66 1.32 1 2 C1.66 2 2.32 2 3 2 C3 3.65 3 5.3 3 7 C0.08482708 5.92598892 -1.77810176 5.22189824 -4 3 C-3.34 3 -2.68 3 -2 3 C-2 2.34 -2 1.68 -2 1 C-1.34 0.67 -0.68 0.34 0 0 Z " fill="#299AC0" transform="translate(397,354)"/>
<path d="M0 0 C-4.5 4 -4.5 4 -9 4 C-9 4.66 -9 5.32 -9 6 C-10.32 5.67 -11.64 5.34 -13 5 C-11.40377344 3.96679519 -9.79770894 2.94877571 -8.1875 1.9375 C-7.29417969 1.36902344 -6.40085937 0.80054688 -5.48046875 0.21484375 C-3 -1 -3 -1 0 0 Z " fill="#23799B" transform="translate(299,326)"/>
<path d="M0 0 C5.625 -0.25 5.625 -0.25 9 2 C9 2.66 9 3.32 9 4 C9.66 4 10.32 4 11 4 C11 4.66 11 5.32 11 6 C6.95743617 4.77782954 3.50711041 3.37245704 0 1 C0 0.67 0 0.34 0 0 Z " fill="#2789AA" transform="translate(302,266)"/>
<path d="M0 0 C0.33 0.66 0.66 1.32 1 2 C1.99 2.33 2.98 2.66 4 3 C0.04 4.98 0.04 4.98 -4 7 C-4.33 6.01 -4.66 5.02 -5 4 C-3.35 2.68 -1.7 1.36 0 0 Z " fill="#2797BC" transform="translate(263,418)"/>
<path d="M0 0 C-0.57584432 2.38564077 -1.22227595 4.66682784 -2 7 C-4.475 6.01 -4.475 6.01 -7 5 C-2.25 0 -2.25 0 0 0 Z " fill="#247498" transform="translate(190,387)"/>
<path d="M0 0 C-3.63 1.98 -7.26 3.96 -11 6 C-11 4.68 -11 3.36 -11 2 C-4.5 -1.125 -4.5 -1.125 0 0 Z " fill="#2785AA" transform="translate(257,378)"/>
<path d="M0 0 C0 0.66 0 1.32 0 2 C-6.75 6 -6.75 6 -9 6 C-9 5.01 -9 4.02 -9 3 C-5.66696609 0.50022457 -4.26696398 0 0 0 Z " fill="#2A90B4" transform="translate(306,348)"/>
<path d="M0 0 C0.33 0 0.66 0 1 0 C1 2.64 1 5.28 1 8 C2.98 8.495 2.98 8.495 5 9 C4.67 9.99 4.34 10.98 4 12 C3.01 12.33 2.02 12.66 1 13 C-0.32229189 10.35541621 -0.09677194 8.32238699 -0.0625 5.375 C-0.05347656 4.37210937 -0.04445313 3.36921875 -0.03515625 2.3359375 C-0.02355469 1.56507813 -0.01195312 0.79421875 0 0 Z " fill="#2CA8D5" transform="translate(402,323)"/>
<path d="M0 0 C4.30764815 1.56641751 8.06171464 3.68336156 12 6 C11.34 6.66 10.68 7.32 10 8 C10 7.34 10 6.68 10 6 C9.0925 5.9175 8.185 5.835 7.25 5.75 C3.5912852 4.9056812 2.33248238 3.87074755 0 1 C0 0.67 0 0.34 0 0 Z " fill="#227B9E" transform="translate(407,298)"/>
<path d="M0 0 C0 0.66 0 1.32 0 2 C-0.99 2 -1.98 2 -3 2 C-3.04125 2.61875 -3.0825 3.2375 -3.125 3.875 C-3.41375 4.57625 -3.7025 5.2775 -4 6 C-7.0625 7.25 -7.0625 7.25 -10 8 C-9.9375 6.25 -9.9375 6.25 -9 4 C-6.29950956 1.99159505 -3.44873267 0 0 0 Z " fill="#2B89AE" transform="translate(127,190)"/>
<path d="M0 0 C-3.63 1.98 -7.26 3.96 -11 6 C-10 2 -10 2 -7.1875 0.1875 C-4 -1 -4 -1 0 0 Z " fill="#2888AB" transform="translate(295,405)"/>
<path d="M0 0 C0 0.66 0 1.32 0 2 C-0.99 2 -1.98 2 -3 2 C-3.33 2.99 -3.66 3.98 -4 5 C-5.84765625 5.73046875 -5.84765625 5.73046875 -8.0625 6.1875 C-8.79597656 6.34605469 -9.52945312 6.50460937 -10.28515625 6.66796875 C-11.13400391 6.83232422 -11.13400391 6.83232422 -12 7 C-9.20232475 3.70861735 -4.40323273 0 0 0 Z " fill="#1F698B" transform="translate(275,387)"/>
<path d="M0 0 C1.32 0.33 2.64 0.66 4 1 C2.37829621 2.00533667 0.75252763 3.00411907 -0.875 4 C-2.23238281 4.8353125 -2.23238281 4.8353125 -3.6171875 5.6875 C-6 7 -6 7 -8 7 C-7.375 5.0625 -7.375 5.0625 -6 3 C-2.875 2.25 -2.875 2.25 0 2 C0 1.34 0 0.68 0 0 Z " fill="#2A88A9" transform="translate(338,328)"/>
<path d="M0 0 C3.3 0.33 6.6 0.66 10 1 C10 2.65 10 4.3 10 6 C6.40992874 4.66654496 3.20429093 3.1056769 0 1 C0 0.67 0 0.34 0 0 Z " fill="#2787AA" transform="translate(293,299)"/>
<path d="M0 0 C4.30764815 1.56641751 8.06171464 3.68336156 12 6 C11.01 6.66 10.02 7.32 9 8 C8.01 7.34 7.02 6.68 6 6 C6 5.34 6 4.68 6 4 C4.35 3.67 2.7 3.34 1 3 C0.67 2.01 0.34 1.02 0 0 Z " fill="#2684A7" transform="translate(298,235)"/>
<path d="M0 0 C0.33 0 0.66 0 1 0 C1 4.95 1 9.9 1 15 C0.01 14.67 -0.98 14.34 -2 14 C-1.855625 13.175 -1.71125 12.35 -1.5625 11.5 C-0.94746848 7.67313722 -0.46439363 3.84783293 0 0 Z " fill="#656D72" transform="translate(359,218)"/>
<path d="M0 0 C0 0.66 0 1.32 0 2 C-0.99 2.495 -0.99 2.495 -2 3 C-2.65213292 5.02463255 -2.65213292 5.02463255 -3 7 C-3.66 7 -4.32 7 -5 7 C-5 6.34 -5 5.68 -5 5 C-6.32 4.67 -7.64 4.34 -9 4 C-2.25 0 -2.25 0 0 0 Z " fill="#2285B0" transform="translate(224,328)"/>
<path d="M0 0 C3.59391114 1.33488128 6.75490696 2.96022723 10 5 C8.02 5.99 8.02 5.99 6 7 C1.125 3.375 1.125 3.375 0 0 Z " fill="#237E9F" transform="translate(231,293)"/>
<path d="M0 0 C3.3 1.65 6.6 3.3 10 5 C6.65284689 6.1157177 5.28928478 6.1807689 2 5 C1.34 3.35 0.68 1.7 0 0 Z " fill="#9BA4A8" transform="translate(363,184)"/>
<path d="M0 0 C1.32 0.33 2.64 0.66 4 1 C4 1.99 4 2.98 4 4 C2.35 4.66 0.7 5.32 -1 6 C-1.33 4.68 -1.66 3.36 -2 2 C-1.34 2 -0.68 2 0 2 C0 1.34 0 0.68 0 0 Z " fill="#289FCD" transform="translate(136,402)"/>
<path d="M0 0 C0 0.66 0 1.32 0 2 C-0.99 2 -1.98 2 -3 2 C-3.33 2.99 -3.66 3.98 -4 5 C-6.31 5.33 -8.62 5.66 -11 6 C-3.8 0 -3.8 0 0 0 Z " fill="#217192" transform="translate(263,394)"/>
<path d="M0 0 C3.3 0 6.6 0 10 0 C9 3 9 3 7.25 3.875 C4.09490914 4.05028283 2.51092775 2.81344782 0 1 C0 0.67 0 0.34 0 0 Z " fill="#2795BB" transform="translate(104,394)"/>
<path d="M0 0 C3.99500618 1.3697164 6.80009492 3.25722422 10 6 C7.8125 6.3125 7.8125 6.3125 5 6 C2.1875 3.5625 2.1875 3.5625 0 1 C0 0.67 0 0.34 0 0 Z " fill="#207796" transform="translate(165,352)"/>
<path d="M0 0 C-0.33 1.32 -0.66 2.64 -1 4 C-2.65 4 -4.3 4 -6 4 C-6.33 4.66 -6.66 5.32 -7 6 C-7.66 5.34 -8.32 4.68 -9 4 C-2.25 0 -2.25 0 0 0 Z " fill="#257FA3" transform="translate(341,349)"/>
<path d="M0 0 C1.32 0.33 2.64 0.66 4 1 C3.34 2.32 2.68 3.64 2 5 C0.0625 4.625 0.0625 4.625 -2 4 C-2.33 3.34 -2.66 2.68 -3 2 C-2.01 2 -1.02 2 0 2 C0 1.34 0 0.68 0 0 Z " fill="#2DB3E4" transform="translate(199,304)"/>
<path d="M0 0 C3.45925163 1.2491742 6.14693203 2.67527795 9 5 C6 6 6 6 3.375 4.75 C1 3 1 3 0 0 Z " fill="#237898" transform="translate(175,358)"/>
<path d="M0 0 C3.79303725 1.00193437 6.71536341 1.81024227 10 4 C10 4.66 10 5.32 10 6 C6.40992874 4.66654496 3.20429093 3.1056769 0 1 C0 0.67 0 0.34 0 0 Z " fill="#2A85AC" transform="translate(202,312)"/>
<path d="M0 0 C3.37503669 1.1858237 5.64722731 2.27573689 8 5 C5.37886292 5 3.49064888 4.68707555 1 4 C0.67 2.68 0.34 1.36 0 0 Z " fill="#237B9E" transform="translate(252,305)"/>
<path d="M0 0 C3.7910119 1.44950455 7.3874638 3.15172566 11 5 C11 5.33 11 5.66 11 6 C9.35 6 7.7 6 6 6 C6 5.34 6 4.68 6 4 C4.35 3.67 2.7 3.34 1 3 C0.67 2.01 0.34 1.02 0 0 Z " fill="#227398" transform="translate(241,299)"/>
<path d="M0 0 C0 0.66 0 1.32 0 2 C-0.99 2 -1.98 2 -3 2 C-3.33 2.99 -3.66 3.98 -4 5 C-4.66 5 -5.32 5 -6 5 C-6.33 5.66 -6.66 6.32 -7 7 C-7.99 6.34 -8.98 5.68 -10 5 C-8.71186658 4.16121545 -7.41936744 3.32913217 -6.125 2.5 C-5.40570313 2.0359375 -4.68640625 1.571875 -3.9453125 1.09375 C-2 0 -2 0 0 0 Z " fill="#217DA2" transform="translate(218,293)"/>
<path d="M0 0 C3.875 1.75 3.875 1.75 5 4 C4.34 4 3.68 4 3 4 C3 4.66 3 5.32 3 6 C2.34 6 1.68 6 1 6 C1 5.34 1 4.68 1 4 C0.34 4 -0.32 4 -1 4 C-0.67 2.68 -0.34 1.36 0 0 Z " fill="#D1D5D7" transform="translate(202,265)"/>
<path d="M0 0 C3.59391114 1.33488128 6.75490696 2.96022723 10 5 C8.375 5.75 8.375 5.75 6 6 C2.75 4.1875 2.75 4.1875 0 2 C0 1.34 0 0.68 0 0 Z " fill="#2484A7" transform="translate(284,227)"/>
<path d="M0 0 C2.02045442 0.60183749 4.02111039 1.27306096 6 2 C6.33 2.66 6.66 3.32 7 4 C4.6875 4.6875 4.6875 4.6875 2 5 C0.1875 3.5625 0.1875 3.5625 -1 2 C-0.67 1.34 -0.34 0.68 0 0 Z " fill="#A7ACB1" transform="translate(276,185)"/>
<path d="M0 0 C0.33 0.66 0.66 1.32 1 2 C0.34 1.67 -0.32 1.34 -1 1 C-0.67 0.67 -0.34 0.34 0 0 Z M-6 1 C-4.32457024 1.28604898 -2.65614657 1.61781233 -1 2 C-2.32 3.32 -3.64 4.64 -5 6 C-5.66 5.67 -6.32 5.34 -7 5 C-7 2 -7 2 -6 1 Z " fill="#D2D4D9" transform="translate(236,81)"/>
<path d="M0 0 C0 1.32 0 2.64 0 4 C-2.64 4 -5.28 4 -8 4 C-2.7826087 0 -2.7826087 0 0 0 Z " fill="#2686A8" transform="translate(198,383)"/>
<path d="M0 0 C1.32 0.33 2.64 0.66 4 1 C1.03 2.65 -1.94 4.3 -5 6 C-5 4.68 -5 3.36 -5 2 C-3.35 2 -1.7 2 0 2 C0 1.34 0 0.68 0 0 Z " fill="#2987AA" transform="translate(177,381)"/>
<path d="M0 0 C0 0.66 0 1.32 0 2 C-0.99 2.33 -1.98 2.66 -3 3 C-3 4.32 -3 5.64 -3 7 C-5.475 6.01 -5.475 6.01 -8 5 C-3.16129032 0 -3.16129032 0 0 0 Z " fill="#216986" transform="translate(81,372)"/>
<path d="M0 0 C0.66 0.33 1.32 0.66 2 1 C2 1.66 2 2.32 2 3 C-2.38461538 6 -2.38461538 6 -5 6 C-5 5.34 -5 4.68 -5 4 C-4.34 4 -3.68 4 -3 4 C-3 3.01 -3 2.02 -3 1 C-2.01 0.67 -1.02 0.34 0 0 Z " fill="#A4ADB2" transform="translate(248,243)"/>
<path d="M0 0 C4.87362847 0.45336079 7.39042389 1.7089159 11 5 C8 6 8 6 5.3125 4.6875 C4.549375 4.130625 3.78625 3.57375 3 3 C3 2.34 3 1.68 3 1 C2.01 0.67 1.02 0.34 0 0 Z " fill="#95A1A4" transform="translate(291,144)"/>
<path d="M0 0 C0.721875 0.144375 1.44375 0.28875 2.1875 0.4375 C3.5796875 0.7159375 3.5796875 0.7159375 5 1 C6.66666667 1.33333333 8.33333333 1.66666667 10 2 C9.01 3.485 9.01 3.485 8 5 C4.62496331 3.8141763 2.35277269 2.72426311 0 0 Z " fill="#2585A9" transform="translate(199,400)"/>
<path d="M0 0 C3.45925163 1.2491742 6.14693203 2.67527795 9 5 C6.1875 5.3125 6.1875 5.3125 3 5 C1.125 2.5 1.125 2.5 0 0 Z " fill="#217B98" transform="translate(236,393)"/>
<path d="M0 0 C0.33 0 0.66 0 1 0 C1.33 4.29 1.66 8.58 2 13 C0.68 13 -0.64 13 -2 13 C-1.34 12.67 -0.68 12.34 0 12 C0 8.04 0 4.08 0 0 Z " fill="#0D4657" transform="translate(426,363)"/>
<path d="M0 0 C-3.96 1.98 -3.96 1.98 -8 4 C-7.67 2.68 -7.34 1.36 -7 0 C-4 -1 -4 -1 0 0 Z " fill="#278BAD" transform="translate(276,367)"/>
<path d="M0 0 C1.32 0.66 2.64 1.32 4 2 C3.01 2 2.02 2 1 2 C1.33 3.32 1.66 4.64 2 6 C-0.475 5.01 -0.475 5.01 -3 4 C-2.67 3.34 -2.34 2.68 -2 2 C-1.34 2 -0.68 2 0 2 C0 1.34 0 0.68 0 0 Z " fill="#2690B6" transform="translate(81,376)"/>
<path d="M0 0 C3.45925163 1.2491742 6.14693203 2.67527795 9 5 C8.01 5.33 7.02 5.66 6 6 C5.34 5.67 4.68 5.34 4 5 C4 4.34 4 3.68 4 3 C2.68 2.67 1.36 2.34 0 2 C0 1.34 0 0.68 0 0 Z " fill="#1F7592" transform="translate(110,358)"/>
<path d="M0 0 C1.32 0.66 2.64 1.32 4 2 C-2.75 6 -2.75 6 -5 6 C-5 5.34 -5 4.68 -5 4 C-4.01 4 -3.02 4 -2 4 C-2 3.34 -2 2.68 -2 2 C-1.34 2 -0.68 2 0 2 C0 1.34 0 0.68 0 0 Z " fill="#2884A8" transform="translate(235,347)"/>
<path d="M0 0 C0 0.66 0 1.32 0 2 C-0.99 2.495 -0.99 2.495 -2 3 C-1.67 3.99 -1.34 4.98 -1 6 C-3.475 5.01 -3.475 5.01 -6 4 C-2.25 0 -2.25 0 0 0 Z " fill="#1F718B" transform="translate(199,304)"/>
<path d="M0 0 C3.37503669 1.1858237 5.64722731 2.27573689 8 5 C7.01 5.33 6.02 5.66 5 6 C4.67 5.01 4.34 4.02 4 3 C2.68 3 1.36 3 0 3 C0 2.01 0 1.02 0 0 Z " fill="#2580B0" transform="translate(376,280)"/>
<path d="M0 0 C-2.05233685 2.2477975 -3.00667261 3.0022242 -6 4 C-6.33 2.68 -6.66 1.36 -7 0 C-4.3333581 -1.33332095 -2.83319697 -0.67102033 0 0 Z " fill="#A5ADB1" transform="translate(241,250)"/>
<path d="M0 0 C3.96 1.98 3.96 1.98 8 4 C7.01 4.66 6.02 5.32 5 6 C3.0625 5.25 3.0625 5.25 1 4 C0.67 2.68 0.34 1.36 0 0 Z " fill="#2A7F9C" transform="translate(276,222)"/>
<path d="M0 0 C1.65 0 3.3 0 5 0 C4.67 0.99 4.34 1.98 4 3 C3.34 3 2.68 3 2 3 C2 3.66 2 4.32 2 5 C1.34 5 0.68 5 0 5 C0 3.35 0 1.7 0 0 Z " fill="#CFD4D8" transform="translate(226,226)"/>
<path d="M0 0 C-0.33 0.99 -0.66 1.98 -1 3 C-2.32 3 -3.64 3 -5 3 C-5 3.66 -5 4.32 -5 5 C-6.32 4.67 -7.64 4.34 -9 4 C-3.375 0 -3.375 0 0 0 Z " fill="#247A98" transform="translate(150,177)"/>
<path d="M0 0 C-2.68841859 2.25245881 -4.64641875 3.88213958 -8 5 C-8 4.01 -8 3.02 -8 2 C-4.77208445 -0.1519437 -3.71599191 -0.20086443 0 0 Z " fill="#2589A9" transform="translate(154,397)"/>
<path d="M0 0 C-2.96687001 1.64826111 -5.65626525 2.44271087 -9 3 C-5.83583464 -0.30799106 -4.50236011 -1.35070803 0 0 Z " fill="#1E6A8B" transform="translate(227,290)"/>
<path d="M0 0 C2.6875 1.4375 2.6875 1.4375 5 3 C4.67 3.66 4.34 4.32 4 5 C1.08482708 3.92598892 -0.77810176 3.22189824 -3 1 C-2.01 0.67 -1.02 0.34 0 0 Z " fill="#A3ABB0" transform="translate(322,235)"/>
<path d="M0 0 C1.65 0.33 3.3 0.66 5 1 C0.25 5 0.25 5 -2 5 C-2.33 4.01 -2.66 3.02 -3 2 C-2.34 2 -1.68 2 -1 2 C-0.67 1.34 -0.34 0.68 0 0 Z " fill="#8F989B" transform="translate(205,171)"/>
<path d="M0 0 C-0.99 1.485 -0.99 1.485 -2 3 C-5.625 3.1875 -5.625 3.1875 -9 3 C-6.38997624 -0.48003168 -4.1689578 -0.27793052 0 0 Z " fill="#2592BA" transform="translate(171,167)"/>
<path d="M0 0 C0 0.66 0 1.32 0 2 C-0.66 2 -1.32 2 -2 2 C-1.67 2.99 -1.34 3.98 -1 5 C-3.97 4.505 -3.97 4.505 -7 4 C-2.25 0 -2.25 0 0 0 Z " fill="#A2AAAF" transform="translate(208,95)"/>
</svg>
